# https://github.com/mikedh/trimesh
mtllib ashvale-materials.mtl

o brazier_1
usemtl ember
v 0.00000000 0.62000000 -0.00000000
v 0.22000000 0.62000000 -0.00000000
v 0.00000000 1.10000002 -0.00000000
v 0.13716775 0.62000000 -0.17200293
v -0.04895461 0.62000000 -0.21448414
v -0.19821315 0.62000000 -0.09545442
v -0.19821315 0.62000000 0.09545442
v -0.04895461 0.62000000 0.21448414
v 0.13716775 0.62000000 0.17200293
f 2 1 4
f 2 4 3
f 4 1 5
f 4 5 3
f 5 1 6
f 5 6 3
f 6 1 7
f 6 7 3
f 7 1 8
f 7 8 3
f 8 1 9
f 8 9 3
f 9 1 2
f 9 2 3

o brazier_0
usemtl iron
v 0.00000000 0.00000000 -0.00000000
v 0.31999999 0.00000000 -0.00000000
v 0.31999999 0.38000000 -0.00000000
v 0.00000000 0.38000000 -0.00000000
v 0.22627416 0.00000000 -0.22627416
v 0.22627416 0.38000000 -0.22627416
v 0.00000000 0.00000000 -0.31999999
v 0.00000000 0.38000000 -0.31999999
v -0.22627416 0.00000000 -0.22627416
v -0.22627416 0.38000000 -0.22627416
v -0.31999999 0.00000000 -0.00000000
v -0.31999999 0.38000000 -0.00000000
v -0.22627416 0.00000000 0.22627416
v -0.22627416 0.38000000 0.22627416
v -0.00000000 0.00000000 0.31999999
v -0.00000000 0.38000000 0.31999999
v 0.22627416 0.00000000 0.22627416
v 0.22627416 0.38000000 0.22627416
f 11 10 14
f 11 14 12
f 12 14 15
f 12 15 13
f 14 10 16
f 14 16 15
f 15 16 17
f 15 17 13
f 16 10 18
f 16 18 17
f 17 18 19
f 17 19 13
f 18 10 20
f 18 20 19
f 19 20 21
f 19 21 13
f 20 10 22
f 20 22 21
f 21 22 23
f 21 23 13
f 22 10 24
f 22 24 23
f 23 24 25
f 23 25 13
f 24 10 26
f 24 26 25
f 25 26 27
f 25 27 13
f 26 10 11
f 26 11 27
f 27 11 12
f 27 12 13
