# https://github.com/mikedh/trimesh
mtllib ashvale-materials.mtl

o broken-pillar_2
usemtl stone
v -0.20999999 1.25999999 0.20999999
v -0.20999999 1.96000004 0.20999999
v -0.20999999 1.25999999 -0.20999999
v -0.20999999 1.96000004 -0.20999999
v 0.20999999 1.25999999 0.20999999
v 0.20999999 1.96000004 0.20999999
v 0.20999999 1.25999999 -0.20999999
v 0.20999999 1.96000004 -0.20999999
f 2 4 1
f 5 2 1
f 1 4 3
f 3 5 1
f 2 8 4
f 6 2 5
f 6 8 2
f 4 8 3
f 7 5 3
f 3 8 7
f 7 6 5
f 8 6 7

o broken-pillar_1
usemtl stone
v -0.28000000 0.69999999 0.28000000
v -0.28000000 1.39999998 0.28000000
v -0.28000000 0.69999999 -0.28000000
v -0.28000000 1.39999998 -0.28000000
v 0.28000000 0.69999999 0.28000000
v 0.28000000 1.39999998 0.28000000
v 0.28000000 0.69999999 -0.28000000
v 0.28000000 1.39999998 -0.28000000
f 10 12 9
f 13 10 9
f 9 12 11
f 11 13 9
f 10 16 12
f 14 10 13
f 14 16 10
f 12 16 11
f 15 13 11
f 11 16 15
f 15 14 13
f 16 14 15

o broken-pillar_0
usemtl stone
v -0.34999999 0.00000000 0.34999999
v -0.34999999 0.69999999 0.34999999
v -0.34999999 0.00000000 -0.34999999
v -0.34999999 0.69999999 -0.34999999
v 0.34999999 0.00000000 0.34999999
v 0.34999999 0.69999999 0.34999999
v 0.34999999 0.00000000 -0.34999999
v 0.34999999 0.69999999 -0.34999999
f 18 20 17
f 21 18 17
f 17 20 19
f 19 21 17
f 18 24 20
f 22 18 21
f 22 24 18
f 20 24 19
f 23 21 19
f 19 24 23
f 23 22 21
f 24 22 23
