# https://github.com/mikedh/trimesh
mtllib ashvale-materials.mtl

o broken-cart_2
usemtl wood
v 0.51999998 0.33000001 -0.00000000
v 0.51999998 -0.01000000 -0.00000000
v 0.63999999 -0.01000000 -0.00000000
v 0.63999999 0.33000001 -0.00000000
v 0.51999998 0.05493422 -0.19984698
v 0.63999999 0.05493422 -0.19984698
v 0.51999998 0.22493422 -0.32335922
v 0.63999999 0.22493422 -0.32335922
v 0.51999998 0.43506578 -0.32335922
v 0.63999999 0.43506578 -0.32335922
v 0.51999998 0.60506576 -0.19984698
v 0.63999999 0.60506576 -0.19984698
v 0.51999998 0.67000002 -0.00000000
v 0.63999999 0.67000002 -0.00000000
v 0.51999998 0.60506576 0.19984698
v 0.63999999 0.60506576 0.19984698
v 0.51999998 0.43506578 0.32335922
v 0.63999999 0.43506578 0.32335922
v 0.51999998 0.22493422 0.32335922
v 0.63999999 0.22493422 0.32335922
v 0.51999998 0.05493422 0.19984698
v 0.63999999 0.05493422 0.19984698
f 2 1 5
f 2 5 3
f 3 5 6
f 3 6 4
f 5 1 7
f 5 7 6
f 6 7 8
f 6 8 4
f 7 1 9
f 7 9 8
f 8 9 10
f 8 10 4
f 9 1 11
f 9 11 10
f 10 11 12
f 10 12 4
f 11 1 13
f 11 13 12
f 12 13 14
f 12 14 4
f 13 1 15
f 13 15 14
f 14 15 16
f 14 16 4
f 15 1 17
f 15 17 16
f 16 17 18
f 16 18 4
f 17 1 19
f 17 19 18
f 18 19 20
f 18 20 4
f 19 1 21
f 19 21 20
f 20 21 22
f 20 22 4
f 21 1 2
f 21 2 22
f 22 2 3
f 22 3 4

o broken-cart_1
usemtl wood
v -0.63999999 0.33000001 -0.00000000
v -0.63999999 -0.01000000 -0.00000000
v -0.51999998 -0.01000000 -0.00000000
v -0.51999998 0.33000001 -0.00000000
v -0.63999999 0.05493422 -0.19984698
v -0.51999998 0.05493422 -0.19984698
v -0.63999999 0.22493422 -0.32335922
v -0.51999998 0.22493422 -0.32335922
v -0.63999999 0.43506578 -0.32335922
v -0.51999998 0.43506578 -0.32335922
v -0.63999999 0.60506576 -0.19984698
v -0.51999998 0.60506576 -0.19984698
v -0.63999999 0.67000002 -0.00000000
v -0.51999998 0.67000002 -0.00000000
v -0.63999999 0.60506576 0.19984698
v -0.51999998 0.60506576 0.19984698
v -0.63999999 0.43506578 0.32335922
v -0.51999998 0.43506578 0.32335922
v -0.63999999 0.22493422 0.32335922
v -0.51999998 0.22493422 0.32335922
v -0.63999999 0.05493422 0.19984698
v -0.51999998 0.05493422 0.19984698
f 24 23 27
f 24 27 25
f 25 27 28
f 25 28 26
f 27 23 29
f 27 29 28
f 28 29 30
f 28 30 26
f 29 23 31
f 29 31 30
f 30 31 32
f 30 32 26
f 31 23 33
f 31 33 32
f 32 33 34
f 32 34 26
f 33 23 35
f 33 35 34
f 34 35 36
f 34 36 26
f 35 23 37
f 35 37 36
f 36 37 38
f 36 38 26
f 37 23 39
f 37 39 38
f 38 39 40
f 38 40 26
f 39 23 41
f 39 41 40
f 40 41 42
f 40 42 26
f 41 23 43
f 41 43 42
f 42 43 44
f 42 44 26
f 43 23 24
f 43 24 44
f 44 24 25
f 44 25 26

o broken-cart_0
usemtl wood
v -0.60000002 0.36000001 0.37500000
v -0.60000002 0.54000002 0.37500000
v -0.60000002 0.36000001 -0.37500000
v -0.60000002 0.54000002 -0.37500000
v 0.60000002 0.36000001 0.37500000
v 0.60000002 0.54000002 0.37500000
v 0.60000002 0.36000001 -0.37500000
v 0.60000002 0.54000002 -0.37500000
f 46 48 45
f 49 46 45
f 45 48 47
f 47 49 45
f 46 52 48
f 50 46 49
f 50 52 46
f 48 52 47
f 51 49 47
f 47 52 51
f 51 50 49
f 52 50 51
