# https://github.com/mikedh/trimesh
mtllib ashvale-materials.mtl

o bush_2
usemtl moss
v -0.45349127 0.34000000 -0.33071476
v -0.10650873 0.34000000 -0.33071476
v -0.45349127 0.34000000 0.23071477
v -0.10650873 0.34000000 0.23071477
v -0.28000000 0.62071478 0.12349126
v -0.28000000 0.62071478 -0.22349127
v -0.28000000 0.05928523 0.12349126
v -0.28000000 0.05928523 -0.22349127
v 0.00071477 0.16650873 -0.05000000
v 0.00071477 0.51349127 -0.05000000
v -0.56071478 0.16650873 -0.05000000
v -0.56071478 0.51349127 -0.05000000
v -0.28000000 0.34000000 -0.38000000
v -0.28000000 0.34000000 0.28000000
v -0.38197562 0.50500000 0.21697561
v -0.17802440 0.50500000 0.21697561
v -0.38197562 0.50500000 -0.31697559
v -0.17802440 0.50500000 -0.31697559
v -0.28000000 0.67000002 -0.05000000
v -0.38197562 0.17500000 0.21697561
v -0.17802440 0.17500000 0.21697561
v -0.38197562 0.17500000 -0.31697559
v -0.17802440 0.17500000 -0.31697559
v -0.28000000 0.01000000 -0.05000000
v -0.01302439 0.23802440 -0.21500000
v -0.01302439 0.23802440 0.11500000
v -0.11500000 0.07302439 0.05197561
v -0.11500000 0.07302439 -0.15197560
v -0.01302439 0.44197559 -0.21500000
v -0.01302439 0.44197559 0.11500000
v -0.11500000 0.60697562 0.05197561
v -0.11500000 0.60697562 -0.15197560
v 0.05000000 0.34000000 -0.05000000
v -0.54697561 0.23802440 -0.21500000
v -0.54697561 0.23802440 0.11500000
v -0.44499999 0.07302439 0.05197561
v -0.44499999 0.07302439 -0.15197560
v -0.54697561 0.44197559 -0.21500000
v -0.54697561 0.44197559 0.11500000
v -0.44499999 0.60697562 0.05197561
v -0.44499999 0.60697562 -0.15197560
v -0.61000001 0.34000000 -0.05000000
f 1 38 17
f 38 12 41
f 17 41 6
f 38 41 17
f 1 17 13
f 17 6 18
f 13 18 2
f 17 18 13
f 1 13 22
f 13 2 23
f 22 23 8
f 13 23 22
f 1 22 34
f 22 8 37
f 34 37 11
f 22 37 34
f 1 34 38
f 34 11 42
f 38 42 12
f 34 42 38
f 2 18 29
f 18 6 32
f 29 32 10
f 18 32 29
f 6 41 19
f 41 12 40
f 19 40 5
f 41 40 19
f 12 42 39
f 42 11 35
f 39 35 3
f 42 35 39
f 11 37 36
f 37 8 24
f 36 24 7
f 37 24 36
f 8 23 28
f 23 2 25
f 28 25 9
f 23 25 28
f 4 30 16
f 30 10 31
f 16 31 5
f 30 31 16
f 4 16 14
f 16 5 15
f 14 15 3
f 16 15 14
f 4 14 21
f 14 3 20
f 21 20 7
f 14 20 21
f 4 21 26
f 21 7 27
f 26 27 9
f 21 27 26
f 4 26 30
f 26 9 33
f 30 33 10
f 26 33 30
f 5 31 19
f 31 10 32
f 19 32 6
f 31 32 19
f 3 15 39
f 15 5 40
f 39 40 12
f 15 40 39
f 7 20 36
f 20 3 35
f 36 35 11
f 20 35 36
f 9 27 28
f 27 7 24
f 28 24 8
f 27 24 28
f 10 33 29
f 33 9 25
f 29 25 2
f 33 25 29

o bush_1
usemtl moss
v 0.12125142 0.34000000 -0.33922127
v 0.47874859 0.34000000 -0.33922127
v 0.12125142 0.34000000 0.23922127
v 0.47874859 0.34000000 0.23922127
v 0.30000001 0.62922126 0.12874858
v 0.30000001 0.62922126 -0.22874857
v 0.30000001 0.05077872 0.12874858
v 0.30000001 0.05077872 -0.22874857
v 0.58922130 0.16125143 -0.05000000
v 0.58922130 0.51874858 -0.05000000
v 0.01077873 0.16125143 -0.05000000
v 0.01077873 0.51874858 -0.05000000
v 0.30000001 0.34000000 -0.38999999
v 0.30000001 0.34000000 0.28999999
v 0.19493422 0.50999999 0.22506578
v 0.40506577 0.50999999 0.22506578
v 0.19493422 0.50999999 -0.32506579
v 0.40506577 0.50999999 -0.32506579
v 0.30000001 0.68000001 -0.05000000
v 0.19493422 0.17000000 0.22506578
v 0.40506577 0.17000000 0.22506578
v 0.19493422 0.17000000 -0.32506579
v 0.40506577 0.17000000 -0.32506579
v 0.30000001 0.00000000 -0.05000000
v 0.57506579 0.23493423 -0.22000000
v 0.57506579 0.23493423 0.12000000
v 0.47000000 0.06493422 0.05506578
v 0.47000000 0.06493422 -0.15506577
v 0.57506579 0.44506577 -0.22000000
v 0.57506579 0.44506577 0.12000000
v 0.47000000 0.61506575 0.05506578
v 0.47000000 0.61506575 -0.15506577
v 0.63999999 0.34000000 -0.05000000
v 0.02493422 0.23493423 -0.22000000
v 0.02493422 0.23493423 0.12000000
v 0.13000000 0.06493422 0.05506578
v 0.13000000 0.06493422 -0.15506577
v 0.02493422 0.44506577 -0.22000000
v 0.02493422 0.44506577 0.12000000
v 0.13000000 0.61506575 0.05506578
v 0.13000000 0.61506575 -0.15506577
v -0.04000000 0.34000000 -0.05000000
f 43 80 59
f 80 54 83
f 59 83 48
f 80 83 59
f 43 59 55
f 59 48 60
f 55 60 44
f 59 60 55
f 43 55 64
f 55 44 65
f 64 65 50
f 55 65 64
f 43 64 76
f 64 50 79
f 76 79 53
f 64 79 76
f 43 76 80
f 76 53 84
f 80 84 54
f 76 84 80
f 44 60 71
f 60 48 74
f 71 74 52
f 60 74 71
f 48 83 61
f 83 54 82
f 61 82 47
f 83 82 61
f 54 84 81
f 84 53 77
f 81 77 45
f 84 77 81
f 53 79 78
f 79 50 66
f 78 66 49
f 79 66 78
f 50 65 70
f 65 44 67
f 70 67 51
f 65 67 70
f 46 72 58
f 72 52 73
f 58 73 47
f 72 73 58
f 46 58 56
f 58 47 57
f 56 57 45
f 58 57 56
f 46 56 63
f 56 45 62
f 63 62 49
f 56 62 63
f 46 63 68
f 63 49 69
f 68 69 51
f 63 69 68
f 46 68 72
f 68 51 75
f 72 75 52
f 68 75 72
f 47 73 61
f 73 52 74
f 61 74 48
f 73 74 61
f 45 57 81
f 57 47 82
f 81 82 54
f 57 82 81
f 49 62 78
f 62 45 77
f 78 77 53
f 62 77 78
f 51 69 70
f 69 49 66
f 70 66 50
f 69 66 70
f 52 75 71
f 75 51 67
f 71 67 44
f 75 67 71

o bush_0
usemtl moss
v -0.24183631 0.25000000 -0.39129937
v 0.24183631 0.25000000 -0.39129937
v -0.24183631 0.25000000 0.39129937
v 0.24183631 0.25000000 0.39129937
v 0.00000000 0.64129937 0.24183631
v 0.00000000 0.64129937 -0.24183631
v 0.00000000 -0.14129937 0.24183631
v 0.00000000 -0.14129937 -0.24183631
v 0.39129937 0.00816369 -0.00000000
v 0.39129937 0.49183631 -0.00000000
v -0.39129937 0.00816369 -0.00000000
v -0.39129937 0.49183631 -0.00000000
v 0.00000000 0.25000000 -0.46000001
v 0.00000000 0.25000000 0.46000001
v -0.14214782 0.47999999 0.37214783
v 0.14214782 0.47999999 0.37214783
v -0.14214782 0.47999999 -0.37214783
v 0.14214782 0.47999999 -0.37214783
v 0.00000000 0.70999998 -0.00000000
v -0.14214782 0.02000000 0.37214783
v 0.14214782 0.02000000 0.37214783
v -0.14214782 0.02000000 -0.37214783
v 0.14214782 0.02000000 -0.37214783
v 0.00000000 -0.20999999 -0.00000000
v 0.37214783 0.10785218 -0.23000000
v 0.37214783 0.10785218 0.23000000
v 0.23000000 -0.12214782 0.14214782
v 0.23000000 -0.12214782 -0.14214782
v 0.37214783 0.39214781 -0.23000000
v 0.37214783 0.39214781 0.23000000
v 0.23000000 0.62214780 0.14214782
v 0.23000000 0.62214780 -0.14214782
v 0.46000001 0.25000000 -0.00000000
v -0.37214783 0.10785218 -0.23000000
v -0.37214783 0.10785218 0.23000000
v -0.23000000 -0.12214782 0.14214782
v -0.23000000 -0.12214782 -0.14214782
v -0.37214783 0.39214781 -0.23000000
v -0.37214783 0.39214781 0.23000000
v -0.23000000 0.62214780 0.14214782
v -0.23000000 0.62214780 -0.14214782
v -0.46000001 0.25000000 -0.00000000
f 85 122 101
f 122 96 125
f 101 125 90
f 122 125 101
f 85 101 97
f 101 90 102
f 97 102 86
f 101 102 97
f 85 97 106
f 97 86 107
f 106 107 92
f 97 107 106
f 85 106 118
f 106 92 121
f 118 121 95
f 106 121 118
f 85 118 122
f 118 95 126
f 122 126 96
f 118 126 122
f 86 102 113
f 102 90 116
f 113 116 94
f 102 116 113
f 90 125 103
f 125 96 124
f 103 124 89
f 125 124 103
f 96 126 123
f 126 95 119
f 123 119 87
f 126 119 123
f 95 121 120
f 121 92 108
f 120 108 91
f 121 108 120
f 92 107 112
f 107 86 109
f 112 109 93
f 107 109 112
f 88 114 100
f 114 94 115
f 100 115 89
f 114 115 100
f 88 100 98
f 100 89 99
f 98 99 87
f 100 99 98
f 88 98 105
f 98 87 104
f 105 104 91
f 98 104 105
f 88 105 110
f 105 91 111
f 110 111 93
f 105 111 110
f 88 110 114
f 110 93 117
f 114 117 94
f 110 117 114
f 89 115 103
f 115 94 116
f 103 116 90
f 115 116 103
f 87 99 123
f 99 89 124
f 123 124 96
f 99 124 123
f 91 104 120
f 104 87 119
f 120 119 95
f 104 119 120
f 93 111 112
f 111 91 108
f 112 108 92
f 111 108 112
f 94 117 113
f 117 93 109
f 113 109 86
f 117 109 113
