# https://github.com/mikedh/trimesh
mtllib ashvale-materials.mtl

o dead-tree_3
usemtl wood
v 0.00000000 1.27776396 -0.41881615
v 0.07000000 1.27776396 -0.41881615
v 0.07000000 1.42223608 0.41881615
v 0.00000000 1.42223608 0.41881615
v 0.03500000 1.33750367 -0.42911986
v 0.03500000 1.48197579 0.40851241
v -0.03500000 1.33750367 -0.42911986
v -0.03500000 1.48197579 0.40851241
v -0.07000000 1.27776396 -0.41881615
v -0.07000000 1.42223608 0.41881615
v -0.03500000 1.21802425 -0.40851241
v -0.03500000 1.36249638 0.42911986
v 0.03500000 1.21802425 -0.40851241
v 0.03500000 1.36249638 0.42911986
f 2 1 5
f 2 5 3
f 3 5 6
f 3 6 4
f 5 1 7
f 5 7 6
f 6 7 8
f 6 8 4
f 7 1 9
f 7 9 8
f 8 9 10
f 8 10 4
f 9 1 11
f 9 11 10
f 10 11 12
f 10 12 4
f 11 1 13
f 11 13 12
f 12 13 14
f 12 14 4
f 13 1 2
f 13 2 14
f 14 2 3
f 14 3 4

o dead-tree_2
usemtl wood
v 0.10000000 0.95854908 -0.16550280
v 0.17000000 0.95854908 -0.16550280
v 0.17000000 1.74145091 0.16550280
v 0.10000000 1.74145091 0.16550280
v 0.13500001 0.98215634 -0.22133915
v 0.13500001 1.76505816 0.10966644
v 0.06500000 0.98215634 -0.22133915
v 0.06500000 1.76505816 0.10966644
v 0.03000000 0.95854908 -0.16550280
v 0.03000000 1.74145091 0.16550280
v 0.06500000 0.93494183 -0.10966644
v 0.06500000 1.71784365 0.22133915
v 0.13500001 0.93494183 -0.10966644
v 0.13500001 1.71784365 0.22133915
f 16 15 19
f 16 19 17
f 17 19 20
f 17 20 18
f 19 15 21
f 19 21 20
f 20 21 22
f 20 22 18
f 21 15 23
f 21 23 22
f 22 23 24
f 22 24 18
f 23 15 25
f 23 25 24
f 24 25 26
f 24 26 18
f 25 15 27
f 25 27 26
f 26 27 28
f 26 28 18
f 27 15 16
f 27 16 28
f 28 16 17
f 28 17 18

o dead-tree_1
usemtl wood
v -0.12000000 1.05389965 0.30487633
v -0.05000000 1.05389965 0.30487633
v -0.05000000 1.64610040 -0.30487633
v -0.12000000 1.64610040 -0.30487633
v -0.08500000 1.01041222 0.26264074
v -0.08500000 1.60261297 -0.34711194
v -0.15500000 1.01041222 0.26264074
v -0.15500000 1.60261297 -0.34711194
v -0.19000000 1.05389965 0.30487633
v -0.19000000 1.64610040 -0.30487633
v -0.15500000 1.09738708 0.34711194
v -0.15500000 1.68958771 -0.26264074
v -0.08500000 1.09738708 0.34711194
v -0.08500000 1.68958771 -0.26264074
f 30 29 33
f 30 33 31
f 31 33 34
f 31 34 32
f 33 29 35
f 33 35 34
f 34 35 36
f 34 36 32
f 35 29 37
f 35 37 36
f 36 37 38
f 36 38 32
f 37 29 39
f 37 39 38
f 38 39 40
f 38 40 32
f 39 29 41
f 39 41 40
f 40 41 42
f 40 42 32
f 41 29 30
f 41 30 42
f 42 30 31
f 42 31 32

o dead-tree_0
usemtl wood
v 0.00000000 0.00000000 -0.00000000
v 0.16000000 0.00000000 -0.00000000
v 0.16000000 1.70000005 -0.00000000
v 0.00000000 1.70000005 -0.00000000
v 0.09975837 0.00000000 -0.12509304
v 0.09975837 1.70000005 -0.12509304
v -0.03560335 0.00000000 -0.15598847
v -0.03560335 1.70000005 -0.15598847
v -0.14415503 0.00000000 -0.06942140
v -0.14415503 1.70000005 -0.06942140
v -0.14415503 0.00000000 0.06942140
v -0.14415503 1.70000005 0.06942140
v -0.03560335 0.00000000 0.15598847
v -0.03560335 1.70000005 0.15598847
v 0.09975837 0.00000000 0.12509304
v 0.09975837 1.70000005 0.12509304
f 44 43 47
f 44 47 45
f 45 47 48
f 45 48 46
f 47 43 49
f 47 49 48
f 48 49 50
f 48 50 46
f 49 43 51
f 49 51 50
f 50 51 52
f 50 52 46
f 51 43 53
f 51 53 52
f 52 53 54
f 52 54 46
f 53 43 55
f 53 55 54
f 54 55 56
f 54 56 46
f 55 43 57
f 55 57 56
f 56 57 58
f 56 58 46
f 57 43 44
f 57 44 58
f 58 44 45
f 58 45 46
