# https://github.com/mikedh/trimesh
mtllib ashvale-materials.mtl

o grass-raised_1
usemtl grass
v -0.98000002 1.00000000 0.98000002
v -0.98000002 1.08000004 0.98000002
v -0.98000002 1.00000000 -0.98000002
v -0.98000002 1.08000004 -0.98000002
v 0.98000002 1.00000000 0.98000002
v 0.98000002 1.08000004 0.98000002
v 0.98000002 1.00000000 -0.98000002
v 0.98000002 1.08000004 -0.98000002
f 2 4 1
f 5 2 1
f 1 4 3
f 3 5 1
f 2 8 4
f 6 2 5
f 6 8 2
f 4 8 3
f 7 5 3
f 3 8 7
f 7 6 5
f 8 6 7

o grass-raised_0
usemtl darkstone
v -1.00000000 0.00000000 1.00000000
v -1.00000000 1.00000000 1.00000000
v -1.00000000 0.00000000 -1.00000000
v -1.00000000 1.00000000 -1.00000000
v 1.00000000 0.00000000 1.00000000
v 1.00000000 1.00000000 1.00000000
v 1.00000000 0.00000000 -1.00000000
v 1.00000000 1.00000000 -1.00000000
f 10 12 9
f 13 10 9
f 9 12 11
f 11 13 9
f 10 16 12
f 14 10 13
f 14 16 10
f 12 16 11
f 15 13 11
f 11 16 15
f 15 14 13
f 16 14 15
